<?xml version="1.0" encoding="UTF-8"?>
<svg version="1.1" xmlns="http://www.w3.org/2000/svg" width="500" height="500">
<path d="M0 0 C165 0 330 0 500 0 C500 165 500 330 500 500 C335 500 170 500 0 500 C0 335 0 170 0 0 Z " fill="#011B22" transform="translate(0,0)"/>
<path d="M0 0 C0.68191406 0.2165625 1.36382812 0.433125 2.06640625 0.65625 C4.09700708 1.34542362 6.03554105 2.13986584 8 3 C8.89074219 3.38671875 9.78148437 3.7734375 10.69921875 4.171875 C24.90340631 10.7819283 36.10819008 21.05587288 46.3203125 32.8046875 C49.94468291 36.96925194 53.70373446 40.99239596 57.5 45 C61.8451577 49.58705308 66.09414937 54.22880648 70.23632812 59 C73.24289415 62.40943921 76.37419686 65.70018308 79.5 69 C83.9008896 73.64588758 88.21809742 78.33640617 92.390625 83.18945312 C94.02977918 85.03350158 95.73931248 86.77223949 97.5 88.5 C99.79326036 90.75797943 101.96428028 93.05996504 104.0625 95.5 C123.18037535 118.22383255 123.18037535 118.22383255 150 129 C167.69687537 130.19999929 181.27595374 126.80703663 195 115 C206.14410309 102.54730905 209.11724128 89.47481732 208.484375 73.23828125 C207.76324821 63.07877022 203.81081689 54.56200993 197 47 C196.18015625 46.07767578 196.18015625 46.07767578 195.34375 45.13671875 C186.81481918 36.08442172 175.28430602 30.38434372 162.8125 29.7265625 C147.71650509 29.27766933 135.09530728 32.47565364 123.78320312 43.07763672 C120.84838277 46.08972394 117.97575494 49.1529606 115.13085938 52.25 C109.94931459 57.67243702 109.94931459 57.67243702 106 59.03515625 C100.99998764 57.30989157 98.11525329 53.46433746 94.6875 49.5625 C93.95982422 48.76005859 93.23214844 47.95761719 92.48242188 47.13085938 C91.14325632 45.6519114 89.81076413 44.16687511 88.48706055 42.67407227 C87.6786426 41.76398823 86.86075331 40.86075331 86 40 C85.58258573 36.8201856 85.68710113 35.43431944 87.58544922 32.79931641 C88.31779785 32.07405762 89.05014648 31.34879883 89.8046875 30.6015625 C91.02285156 29.38726562 91.02285156 29.38726562 92.265625 28.1484375 C93.12671875 27.31570312 93.9878125 26.48296875 94.875 25.625 C96.10863281 24.3875 96.10863281 24.3875 97.3671875 23.125 C115.85974874 4.92138503 137.24469542 -3.68596661 163.03369141 -3.5456543 C185.92012481 -2.85450224 205.15293415 7.76829663 221 24 C238.47439379 44.38679275 242.76537377 66.86681251 241 93 C239.3743924 105.87109393 234.35658853 116.46149602 227 127 C226.39929688 127.86109375 225.79859375 128.7221875 225.1796875 129.609375 C223.5344099 131.82858664 221.81974498 133.92199427 220 136 C219.34773438 136.74636719 218.69546875 137.49273437 218.0234375 138.26171875 C212.14014739 144.56218761 205.49916521 148.82302666 198 153 C196.99582031 153.56976563 195.99164063 154.13953125 194.95703125 154.7265625 C183.55948413 160.8393817 172.0760126 162.57039426 159.25 162.5 C158.02716309 162.49427979 156.80432617 162.48855957 155.54443359 162.48266602 C145.64459226 162.28828198 137.09104768 160.89650861 128 157 C127.06196533 156.60651367 127.06196533 156.60651367 126.10498047 156.20507812 C109.32444946 148.97440757 96.43425013 135.79336078 84.75 122.03515625 C82.49267636 119.41000978 80.15547905 116.86090322 77.8125 114.3125 C77.34706787 113.80589844 76.88163574 113.29929687 76.40209961 112.77734375 C73.91932428 110.0782165 71.43129586 107.3839705 68.94140625 104.69140625 C67.91923779 103.58596806 66.89710232 102.48049935 65.875 101.375 C65.36880127 100.82755127 64.86260254 100.28010254 64.34106445 99.71606445 C60.63943018 95.70701141 56.9852884 91.65749575 53.34375 87.59375 C50.5853164 84.54108348 47.7949969 81.51915705 45 78.5 C41.47302384 74.69015859 37.96489786 70.86662515 34.5 67 C33.00074908 65.33265947 31.50069195 63.66604365 30 62 C29.54125488 61.48937012 29.08250977 60.97874023 28.60986328 60.45263672 C15.33619126 45.7172415 1.69963055 31.2494879 -19.2578125 29.546875 C-33.03494983 28.95562183 -45.31864142 31.98060106 -56 41 C-56.69609375 41.55042969 -57.3921875 42.10085937 -58.109375 42.66796875 C-65.35348778 49.0276259 -71.86596995 60.28613731 -73 70 C-73.97985226 86.32016218 -71.850346 100.56327122 -60.9296875 113.44140625 C-56.14230147 118.50402528 -51.33741579 122.13181848 -45 125 C-43.82244141 125.5878125 -43.82244141 125.5878125 -42.62109375 126.1875 C-31.10666505 131.25033277 -17.23288008 130.26040709 -5.56640625 126.140625 C4.73975671 121.56010813 11.98904831 115.36628933 19.59619141 107.11791992 C22.23517277 104.34090488 24.4574315 102.27091913 27.90234375 100.55078125 C33.24750277 101.32593041 36.23731845 105.23284165 39.875 109 C40.65875 109.75667969 41.4425 110.51335937 42.25 111.29296875 C45.49823893 114.58082035 47.70256177 117.01223873 49.046875 121.4765625 C47.37369823 127.10792611 43.5568573 130.3875096 39.375 134.375 C38.51358398 135.21554932 37.65216797 136.05609863 36.76464844 136.92211914 C30.010249 143.36762072 23.17470959 148.50805932 15 153 C14.16094116 153.49959229 14.16094116 153.49959229 13.30493164 154.00927734 C1.35691175 161.10325825 -10.49525709 162.47811021 -24.1875 162.5625 C-25.43345947 162.57700195 -26.67941895 162.59150391 -27.96313477 162.60644531 C-39.82726614 162.47822669 -50.80444505 159.71469808 -61.3125 154.1875 C-61.98490723 153.84058105 -62.65731445 153.49366211 -63.35009766 153.13623047 C-68.72412151 150.29146452 -73.49527304 147.10525117 -78 143 C-79.21042969 141.92685547 -79.21042969 141.92685547 -80.4453125 140.83203125 C-95.10041421 127.09567445 -105.68545052 107.20690961 -106.43359375 86.9765625 C-106.45664251 84.52614972 -106.45745367 82.07543994 -106.4375 79.625 C-106.43137695 78.34657227 -106.42525391 77.06814453 -106.41894531 75.75097656 C-106.27120413 66.8569572 -105.51835914 59.24994558 -102 51 C-101.68804687 50.1853125 -101.37609375 49.370625 -101.0546875 48.53125 C-92.40527492 27.30748132 -75.82746436 11.43483079 -55.0625 2.1875 C-38.13731984 -4.31880302 -17.30996255 -6.22121782 0 0 Z " fill="#5372F5" transform="translate(184,110)"/>
<path d="M0 0 C5.42159884 3.17361883 8.69726353 7.06444685 10.70703125 13.09375 C11.32387192 19.26215673 9.87934295 23.87510143 6.70703125 29.09375 C2.5146997 33.95732565 -2.41076996 35.77350569 -8.66796875 36.46875 C-14.50526245 35.86489203 -18.68798124 33.78104457 -22.73046875 29.53125 C-26.33651685 23.90581496 -25.85879388 17.55690746 -25.29296875 11.09375 C-23.00744945 6.17109305 -19.57602169 3.28325751 -15.29296875 0.09375 C-10.28071381 -1.57700165 -4.98839983 -1.97156518 0 0 Z " fill="#C0C2C2" transform="translate(205.29296875,298.90625)"/>
<path d="M0 0 C2.31 0 4.62 0 7 0 C7.84179395 2.72681111 8.67363069 5.45601443 9.5 8.1875 C9.73847656 8.95642578 9.97695312 9.72535156 10.22265625 10.51757812 C11.40213617 14.44356128 12.3326262 17.85048821 12 22 C12.66 22 13.32 22 14 22 C14.1546875 20.4221875 14.1546875 20.4221875 14.3125 18.8125 C16.31378337 2.68621663 16.31378337 2.68621663 19 0 C21.33297433 -0.04092937 23.66705225 -0.04241723 26 0 C26.26554687 1.20398438 26.53109375 2.40796875 26.8046875 3.6484375 C27.16107493 5.2240451 27.51786678 6.79956127 27.875 8.375 C28.04902344 9.1690625 28.22304687 9.963125 28.40234375 10.78125 C28.57636719 11.54179687 28.75039062 12.30234375 28.9296875 13.0859375 C29.08679199 13.7876709 29.24389648 14.4894043 29.40576172 15.21240234 C29.92669906 17.22533011 29.92669906 17.22533011 32 19 C33.32 12.73 34.64 6.46 36 0 C38.64 0 41.28 0 44 0 C41.33343613 11.76863385 38.3113918 23.39655743 35 35 C32.36 35 29.72 35 27 35 C24.525 24.605 24.525 24.605 22 14 C20.02 20.93 18.04 27.86 16 35 C13.69 35 11.38 35 9 35 C8.68546875 33.86304688 8.3709375 32.72609375 8.046875 31.5546875 C7.61463144 29.99477833 7.18233606 28.43488353 6.75 26.875 C6.52546143 26.06345459 6.30092285 25.25190918 6.06958008 24.41577148 C4.99317414 20.53515497 3.90763081 16.6582714 2.77734375 12.79296875 C2.41769531 11.56191406 2.05804688 10.33085937 1.6875 9.0625 C1.36136719 7.96035156 1.03523437 6.85820312 0.69921875 5.72265625 C0 3 0 3 0 0 Z " fill="#C1C3C3" transform="translate(226,299)"/>
<path d="M0 0 C3.125 1.0625 3.125 1.0625 5 3 C5.3125 6.6875 5.3125 6.6875 5 10 C3.7625 9.505 3.7625 9.505 2.5 9 C-1.5873983 7.83217191 -4.76923344 7.8541115 -9 8 C-9.33 9.32 -9.66 10.64 -10 12 C-7.16697148 13.56105653 -4.74655222 14.31033579 -1.5625 14.8125 C2.92234561 15.77459559 5.3223089 17.11302905 8 21 C8.55156805 24.86097632 8.35698156 27.17330586 6.8125 30.75 C4.05786488 34.16954704 1.11692151 35.62769283 -3 37 C-9.00202636 37.40013509 -12.63185975 36.68407013 -18 34 C-18 31.03 -18 28.06 -18 25 C-17.34 25 -16.68 25 -16 25 C-15.505 25.66 -15.01 26.32 -14.5 27 C-10.692142 30.0462864 -6.71423068 29.50098967 -2 29 C-1.34 28.67 -0.68 28.34 0 28 C-0.495 25.525 -0.495 25.525 -1 23 C-1.81984375 22.82984375 -2.6396875 22.6596875 -3.484375 22.484375 C-4.56203125 22.24203125 -5.6396875 21.9996875 -6.75 21.75 C-7.81734375 21.51796875 -8.8846875 21.2859375 -9.984375 21.046875 C-13.36010939 19.87498793 -14.8678386 18.85132273 -17 16 C-17.8024854 12.59635503 -17.65987953 9.42693738 -17 6 C-12.06799554 -0.35968997 -7.61865537 -0.63389126 0 0 Z " fill="#BDBFBF" transform="translate(299,298)"/>
<path d="M0 0 C1.43859375 -0.02126953 1.43859375 -0.02126953 2.90625 -0.04296875 C5.5 0.1875 5.5 0.1875 8.5 2.1875 C8.90843923 4.89953652 8.63336867 7.4312142 8.5 10.1875 C7.94183594 9.86652344 7.38367188 9.54554688 6.80859375 9.21484375 C2.79175071 7.42731461 -1.19867309 7.54125864 -5.5 8.1875 C-8.83333333 9.85416667 -8.83333333 9.85416667 -10.5 13.1875 C-11.40577606 18.16518824 -11.2892183 21.89844344 -8.625 26.25 C-5.32247746 29.26112349 -3.07202295 29.45444907 1.390625 29.421875 C4.49573771 29.07686248 6.85062189 27.77712686 9.5 26.1875 C9.5 28.8275 9.5 31.4675 9.5 34.1875 C4.10652389 36.94161546 -0.43431285 38.15371565 -6.5 37.1875 C-12.04401298 35.16159349 -15.87363891 31.44022219 -18.5 26.1875 C-18.67603147 23.77500308 -18.76744968 21.35599105 -18.8125 18.9375 C-18.84988281 17.63296875 -18.88726562 16.3284375 -18.92578125 14.984375 C-18.43507778 10.60856058 -17.26123223 8.56951286 -14.5 5.1875 C-9.60990325 1.49497796 -6.08503257 0.04089404 0 0 Z " fill="#BEC1C1" transform="translate(376.5,297.8125)"/>
<path d="M0 0 C2.97 0 5.94 0 9 0 C10.98 4.29 12.96 8.58 15 13 C17.31 8.71 19.62 4.42 22 0 C24.64 0 27.28 0 30 0 C28.65406708 3.67136676 26.91474164 6.99973202 25.02929688 10.41992188 C20.50606299 18.77859915 18.75920978 25.36839137 19 35 C16.36 35 13.72 35 11 35 C11.020625 34.175 11.04125 33.35 11.0625 32.5 C10.8930974 23.0134544 8.42921958 16.69365799 3.91015625 8.49609375 C2.37542774 5.68713256 1.09876732 2.99716112 0 0 Z " fill="#C0C2C2" transform="translate(318,299)"/>
<path d="M0 0 C3.86511983 1.68048688 5.43273342 3.14685117 7 7 C7.52484661 10.39769123 7.55493704 13.60444463 7 17 C4.80977082 19.82424288 3.16982793 21.41508603 0 23 C-3.25090692 23.37510464 -5.84388451 23.66540869 -8.7578125 21.98828125 C-11.45308356 19.82034584 -12.89684396 18.30946812 -14 15 C-14.34547151 9.64519163 -14.46362011 6.3615957 -11 2 C-7.28957469 -0.47361688 -4.30137325 -0.54607278 0 0 Z " fill="#041E25" transform="translate(201,305)"/>
<path d="M0 0 C6.6 0 13.2 0 20 0 C20 1.98 20 3.96 20 6 C15.71 6 11.42 6 7 6 C7 8.64 7 11.28 7 14 C10.63 14 14.26 14 18 14 C18 15.65 18 17.3 18 19 C14.37 19 10.74 19 7 19 C7 24.28 7 29.56 7 35 C4.69 35 2.38 35 0 35 C0 23.45 0 11.9 0 0 Z " fill="#C8C9C9" transform="translate(117,299)"/>
<path d="M0 0 C2.64 0 5.28 0 8 0 C8 9.57 8 19.14 8 29 C10.97 29 13.94 29 17 29 C17 30.98 17 32.96 17 35 C11.39 35 5.78 35 0 35 C0 23.45 0 11.9 0 0 Z " fill="#BBBEBE" transform="translate(151,299)"/>
<path d="M0 0 C0.66 0.33 1.32 0.66 2 1 C1.52167725 1.44279297 1.04335449 1.88558594 0.55053711 2.34179688 C-1.65768115 4.39040095 -3.86009376 6.44514951 -6.0625 8.5 C-6.81466797 9.19609375 -7.56683594 9.8921875 -8.34179688 10.609375 C-14.07785659 15.9729633 -19.62924494 21.44386741 -24 28 C-24.36181867 24.77345805 -24.29988258 23.4049888 -22.33520508 20.75170898 C-21.57103271 20.00735596 -20.80686035 19.26300293 -20.01953125 18.49609375 C-19.18486328 17.67302734 -18.35019531 16.84996094 -17.49023438 16.00195312 C-16.60658203 15.15568359 -15.72292969 14.30941406 -14.8125 13.4375 C-13.94818359 12.58736328 -13.08386719 11.73722656 -12.19335938 10.86132812 C-8.26681153 7.02504574 -4.32865082 3.38267012 0 0 Z " fill="#5355D6" transform="translate(294,122)"/>
</svg>
